name analog
datacolumns 19
datarows 33
range 0.7675000000000001 0.7835
endheader
time	ground_force_vx	ground_force_vy	ground_force_vz	ground_force_px	ground_force_py	ground_force_pz	l_ground_force_vx	l_ground_force_vy	l_ground_force_vz	l_ground_force_px	l_ground_force_py	l_ground_force_pz	ground_torque_x	ground_torque_y	ground_torque_z	l_ground_torque_x	l_ground_torque_y	l_ground_torque_z
0.7675000000000001	-0.0	-0.0	-0.0	-10.330814361572266	27.3178768157959	-558.37744140625	12.464646339416504	-23.125301361083984	-439.7237854003906	-0.0	-0.0	-0.0	-0.0	-0.0	-0.0	132767.546875	-44820.890625	5574.798828125
0.768	-0.0	-0.0	-0.0	-10.4110689163208	27.78214836120605	-557.4581909179688	12.723509788513184	-23.35462760925293	-438.9432373046875	-0.0	-0.0	-0.0	-0.0	-0.0	-0.0	132873.859375	-44738.76953125	5545.22705078125
0.7685	-0.0	-0.0	-0.0	-10.25926399230957	27.57696914672852	-558.7660522460938	13.187322616577148	-23.662599563598636	-440.4788818359375	-0.0	-0.0	-0.0	-0.0	-0.0	-0.0	133012.921875	-45036.74609375	5642.0927734375
0.769	-0.0	-0.0	-0.0	-10.36639404296875	28.111331939697266	-558.7662963867188	13.136902809143066	-23.83918190002441	-439.99169921875	-0.0	-0.0	-0.0	-0.0	-0.0	-0.0	133203.3125	-45059.71484375	5696.2060546875
0.7695	-0.0	-0.0	-0.0	-10.12597942352295	27.88878631591797	-556.5758056640625	13.484039306640623	-24.03894424438477	-440.2496643066406	-0.0	-0.0	-0.0	-0.0	-0.0	-0.0	133214.53125	-45278.234375	5642.24560546875
0.77	-0.0	-0.0	-0.0	-10.089899063110352	27.612218856811523	-557.5989990234375	13.533601760864258	-23.862445831298828	-440.3726501464844	-0.0	-0.0	-0.0	-0.0	-0.0	-0.0	133402.921875	-45333.6796875	5822.9521484375
0.7705	-0.0	-0.0	-0.0	-10.68693733215332	27.24884796142578	-556.294677734375	13.596390724182127	-24.192296981811523	-441.1335754394531	-0.0	-0.0	-0.0	-0.0	-0.0	-0.0	133596.296875	-45785.0859375	5993.02587890625
0.771	-0.0	-0.0	-0.0	-10.616050720214844	27.719554901123047	-555.3449096679688	13.951415061950684	-24.039310455322266	-442.1196899414063	-0.0	-0.0	-0.0	-0.0	-0.0	-0.0	133936.15625	-45785.99609375	6071.66796875
0.7715	-0.0	-0.0	-0.0	-10.42833423614502	27.123504638671875	-553.7125244140625	14.613240242004396	-24.39274024963379	-442.7873229980469	-0.0	-0.0	-0.0	-0.0	-0.0	-0.0	134172.078125	-46013.953125	6333.54541015625
0.772	-0.0	-0.0	-0.0	-9.81740951538086	27.194110870361328	-553.39599609375	15.250181198120115	-24.601560592651367	-444.1526184082031	-0.0	-0.0	-0.0	-0.0	-0.0	-0.0	134670.859375	-46115.8359375	6296.0732421875
0.7725	-0.0	-0.0	-0.0	-10.04809284210205	27.24567031860352	-553.3583984375	15.379549026489258	-24.119930267333984	-445.994873046875	-0.0	-0.0	-0.0	-0.0	-0.0	-0.0	134951.671875	-46441.31640625	6608.99658203125
0.773	-0.0	-0.0	-0.0	-10.371270179748535	27.353561401367188	-551.6671142578125	16.015670776367188	-24.48958778381348	-446.6294555664063	-0.0	-0.0	-0.0	-0.0	-0.0	-0.0	135392.078125	-46549.1640625	6638.95166015625
0.7735	-0.0	-0.0	-0.0	-10.1509370803833	27.156206130981445	-549.1571044921875	16.056652069091797	-24.682802200317383	-448.1808471679688	-0.0	-0.0	-0.0	-0.0	-0.0	-0.0	135830.453125	-46630.53125	6760.2783203125
0.774	-0.0	-0.0	-0.0	-10.310004234313965	27.242341995239254	-548.8796997070312	16.234073638916016	-25.323474884033203	-449.7727661132813	-0.0	-0.0	-0.0	-0.0	-0.0	-0.0	136263.125	-46711.12890625	6867.69775390625
0.7745	-0.0	-0.0	-0.0	-10.31713581085205	27.601486206054688	-548.2881469726562	16.242443084716797	-25.18001365661621	-451.8351440429688	-0.0	-0.0	-0.0	-0.0	-0.0	-0.0	136778.5625	-46710.27734375	6929.74853515625
0.775	-0.0	-0.0	-0.0	-10.457060813903809	26.81677627563477	-549.4710693359375	16.618614196777344	-25.12532615661621	-453.8970947265625	-0.0	-0.0	-0.0	-0.0	-0.0	-0.0	137280.0	-46567.2421875	7011.7890625
0.7755	-0.0	-0.0	-0.0	-10.348419189453123	27.10542106628418	-547.3901977539062	16.846546173095703	-25.377384185791016	-453.5479736328125	-0.0	-0.0	-0.0	-0.0	-0.0	-0.0	137325.0625	-46746.109375	7107.8447265625
0.776	-0.0	-0.0	-0.0	-10.447468757629396	27.045833587646484	-547.5484008789062	17.163949966430664	-25.71012687683105	-455.293701171875	-0.0	-0.0	-0.0	-0.0	-0.0	-0.0	137872.84375	-46991.12890625	7211.17822265625
0.7765	-0.0	-0.0	-0.0	-10.883682250976562	26.93718719482422	-547.3897094726562	18.097000122070312	-25.718786239624023	-458.0190124511719	-0.0	-0.0	-0.0	-0.0	-0.0	-0.0	138152.15625	-47224.09375	7464.36865234375
0.777	-0.0	-0.0	-0.0	-10.249235153198242	26.60071563720703	-544.7987060546875	18.29179573059082	-25.72755622863769	-458.0185241699219	-0.0	-0.0	-0.0	-0.0	-0.0	-0.0	138542.359375	-47341.0625	7624.3232421875
0.7775	-0.0	-0.0	-0.0	-9.793107986450195	26.521804809570312	-544.1708984375	19.3752384185791	-26.117122650146484	-459.7295227050781	-0.0	-0.0	-0.0	-0.0	-0.0	-0.0	138967.78125	-47164.4375	7799.57568359375
0.778	-0.0	-0.0	-0.0	-9.804720878601074	26.591123580932617	-541.8580322265625	20.137348175048828	-25.93149185180664	-461.7518005371094	-0.0	-0.0	-0.0	-0.0	-0.0	-0.0	139401.484375	-47406.96484375	7990.3076171875
0.7785	-0.0	-0.0	-0.0	-9.70365047454834	26.52030563354492	-541.8583984375	20.82931327819824	-26.063718795776367	-462.3464660644531	-0.0	-0.0	-0.0	-0.0	-0.0	-0.0	139785.53125	-47444.1875	8222.1708984375
0.779	-0.0	-0.0	-0.0	-9.802947998046877	26.12540626525879	-540.2141723632812	21.7341423034668	-25.825458526611328	-463.1837768554688	-0.0	-0.0	-0.0	-0.0	-0.0	-0.0	140320.8125	-47469.48828125	8480.880859375
0.7795	-0.0	-0.0	-0.0	-9.61417293548584	26.290149688720703	-540.1618041992188	22.15970993041992	-25.737424850463867	-464.7208251953125	-0.0	-0.0	-0.0	-0.0	-0.0	-0.0	140337.0625	-47649.43359375	8632.4375
0.78	-0.0	-0.0	-0.0	-9.514528274536133	25.82062149047852	-537.06396484375	22.789628982543945	-26.265838623046875	-466.466552734375	-0.0	-0.0	-0.0	-0.0	-0.0	-0.0	140618.203125	-47829.12109375	8888.1572265625
0.7805	-0.0	-0.0	-0.0	-9.184248924255373	25.5284481048584	-535.5443725585938	23.685779571533203	-26.134143829345703	-466.0097961425781	-0.0	-0.0	-0.0	-0.0	-0.0	-0.0	140703.75	-47825.84765625	9051.64453125
0.781	-0.0	-0.0	-0.0	-8.873703002929688	25.868728637695312	-535.4622192382812	24.52700424194336	-26.106674194335938	-466.3943176269531	-0.0	-0.0	-0.0	-0.0	-0.0	-0.0	140880.265625	-47680.828125	9265.9931640625
0.7815	-0.0	-0.0	-0.0	-8.522143363952637	25.72208976745605	-535.77392578125	24.796443939208984	-26.23154067993164	-467.4050903320313	-0.0	-0.0	-0.0	-0.0	-0.0	-0.0	140846.71875	-47910.46484375	9536.2158203125
0.782	-0.0	-0.0	-0.0	-8.307167053222656	25.444482803344727	-535.9176025390625	25.48789405822754	-26.059892654418945	-466.2272338867188	-0.0	-0.0	-0.0	-0.0	-0.0	-0.0	140731.765625	-47762.37109375	9733.41796875
0.7825	-0.0	-0.0	-0.0	-7.714664936065674	25.16666603088379	-533.0748901367188	26.109020233154297	-26.36163902282715	-466.9808654785156	-0.0	-0.0	-0.0	-0.0	-0.0	-0.0	140658.671875	-47871.80078125	9932.16796875
0.783	-0.0	-0.0	-0.0	-7.661402702331543	25.234594345092773	-535.1242065429688	26.79065704345703	-25.91572952270508	-466.1914978027344	-0.0	-0.0	-0.0	-0.0	-0.0	-0.0	140463.640625	-47644.73828125	10054.650390625
0.7835	-0.0	-0.0	-0.0	-7.190710544586182	24.92120361328125	-532.3275146484375	27.3831844329834	-26.80258560180664	-465.3071594238281	-0.0	-0.0	-0.0	-0.0	-0.0	-0.0	140623.40625	-47853.54296875	10474.560546875
